<?xml version="1.0" standalone="no"?>
<svg xmlns:xlink="http://www.w3.org/1999/xlink" id="wave" style="transform:rotate(180deg); transition: 0.3s" viewBox="0 0 1440 100" version="1.1" xmlns="http://www.w3.org/2000/svg"><defs><linearGradient id="sw-gradient-0" x1="0" x2="0" y1="1" y2="0"><stop stop-color="rgba(195, 171, 244, 1)" offset="0%"/><stop stop-color="rgba(195, 171, 244, 1)" offset="100%"/></linearGradient></defs><path style="transform:translate(0, 0px); opacity:1" fill="url(#sw-gradient-0)" d="M0,70L26.7,71.7C53.3,73,107,77,160,65C213.3,53,267,27,320,13.3C373.3,0,427,0,480,11.7C533.3,23,587,47,640,61.7C693.3,77,747,83,800,73.3C853.3,63,907,37,960,33.3C1013.3,30,1067,50,1120,56.7C1173.3,63,1227,57,1280,55C1333.3,53,1387,57,1440,60C1493.3,63,1547,67,1600,70C1653.3,73,1707,77,1760,80C1813.3,83,1867,87,1920,76.7C1973.3,67,2027,43,2080,33.3C2133.3,23,2187,27,2240,38.3C2293.3,50,2347,70,2400,75C2453.3,80,2507,70,2560,63.3C2613.3,57,2667,53,2720,58.3C2773.3,63,2827,77,2880,78.3C2933.3,80,2987,70,3040,61.7C3093.3,53,3147,47,3200,41.7C3253.3,37,3307,33,3360,33.3C3413.3,33,3467,37,3520,31.7C3573.3,27,3627,13,3680,16.7C3733.3,20,3787,40,3813,50L3840,60L3840,100L3813.3,100C3786.7,100,3733,100,3680,100C3626.7,100,3573,100,3520,100C3466.7,100,3413,100,3360,100C3306.7,100,3253,100,3200,100C3146.7,100,3093,100,3040,100C2986.7,100,2933,100,2880,100C2826.7,100,2773,100,2720,100C2666.7,100,2613,100,2560,100C2506.7,100,2453,100,2400,100C2346.7,100,2293,100,2240,100C2186.7,100,2133,100,2080,100C2026.7,100,1973,100,1920,100C1866.7,100,1813,100,1760,100C1706.7,100,1653,100,1600,100C1546.7,100,1493,100,1440,100C1386.7,100,1333,100,1280,100C1226.7,100,1173,100,1120,100C1066.7,100,1013,100,960,100C906.7,100,853,100,800,100C746.7,100,693,100,640,100C586.7,100,533,100,480,100C426.7,100,373,100,320,100C266.7,100,213,100,160,100C106.7,100,53,100,27,100L0,100Z"/></svg>