<?xml version="1.0" standalone="no"?>
<svg xmlns:xlink="http://www.w3.org/1999/xlink" id="wave" style="transform:rotate(0deg); transition: 0.3s" viewBox="0 0 1440 340" version="1.1" xmlns="http://www.w3.org/2000/svg"><defs><linearGradient id="sw-gradient-0" x1="0" x2="0" y1="1" y2="0"><stop stop-color="rgba(195, 171, 244, 1)" offset="0%"/><stop stop-color="rgba(147, 116, 196, 1)" offset="100%"/></linearGradient></defs><path style="transform:translate(0, 0px); opacity:1" fill="url(#sw-gradient-0)" d="M0,170L30,147.3C60,125,120,79,180,85C240,91,300,147,360,158.7C420,170,480,136,540,130.3C600,125,660,147,720,181.3C780,215,840,261,900,272C960,283,1020,261,1080,209.7C1140,159,1200,79,1260,45.3C1320,11,1380,23,1440,73.7C1500,125,1560,215,1620,249.3C1680,283,1740,261,1800,243.7C1860,227,1920,215,1980,209.7C2040,204,2100,204,2160,209.7C2220,215,2280,227,2340,209.7C2400,193,2460,147,2520,153C2580,159,2640,215,2700,204C2760,193,2820,113,2880,96.3C2940,79,3000,125,3060,130.3C3120,136,3180,102,3240,102C3300,102,3360,136,3420,153C3480,170,3540,170,3600,153C3660,136,3720,102,3780,79.3C3840,57,3900,45,3960,73.7C4020,102,4080,170,4140,187C4200,204,4260,170,4290,153L4320,136L4320,340L4290,340C4260,340,4200,340,4140,340C4080,340,4020,340,3960,340C3900,340,3840,340,3780,340C3720,340,3660,340,3600,340C3540,340,3480,340,3420,340C3360,340,3300,340,3240,340C3180,340,3120,340,3060,340C3000,340,2940,340,2880,340C2820,340,2760,340,2700,340C2640,340,2580,340,2520,340C2460,340,2400,340,2340,340C2280,340,2220,340,2160,340C2100,340,2040,340,1980,340C1920,340,1860,340,1800,340C1740,340,1680,340,1620,340C1560,340,1500,340,1440,340C1380,340,1320,340,1260,340C1200,340,1140,340,1080,340C1020,340,960,340,900,340C840,340,780,340,720,340C660,340,600,340,540,340C480,340,420,340,360,340C300,340,240,340,180,340C120,340,60,340,30,340L0,340Z"/></svg>